<svg width="393" height="15" viewBox="0 0 393 15" fill="none" xmlns="http://www.w3.org/2000/svg">
<path d="M30.5519 9.7472C30.7864 9.72845 31.7731 9.717 32.1978 9.69719C31.7087 9.82245 29.6876 9.81573 30.5519 9.7472ZM73.6785 0.634131C73.3245 0.668629 72.972 0.703164 72.6211 0.737734C73.6257 0.73192 74.9659 0.682662 75.8882 0.687953C76.0397 0.688906 75.6484 0.774203 76.0069 0.769882C76.3662 0.765553 76.2941 0.662078 76.8185 0.639662C77.4277 0.614084 80.0652 0.632897 81.0177 0.612747C84.4634 0.537776 87.9999 0.41512 91.4569 0.404042C87.8667 0.539698 91.4782 0.559857 92.5003 0.510788C92.7276 0.499895 92.6557 0.303924 96.2862 0.301026C98.5637 0.300887 96.4423 0.607769 100.282 0.41795C97.3158 0.261332 100.244 0.235828 102.522 0.202392C102.924 0.196068 106.121 0.189062 107.542 0.166463C108.026 0.158503 108.78 0.0487875 109.41 0.0400985C109.848 0.0341466 110.181 0.0868861 110.837 0.0780669C113.921 0.0374843 116.927 0.0104841 119.974 0.0108071C118.184 0.284512 121.382 0.114152 121.533 0.126231C122.266 0.193216 118.949 0.233 120.26 0.26984C122.108 0.250631 123.899 0.233339 125.741 0.217349C124.235 0.191484 127.733 -0.0122975 128.362 0.0720092C128.141 -0.11055 133.408 0.103384 136.333 0.170188C137.11 0.187918 137.717 0.194278 137.995 0.177637C138.27 0.161433 136.473 0.0462621 140.629 0.098731C141.081 0.104699 140.91 0.174686 141.147 0.168248C141.292 0.16438 142.134 -0.0578566 143.041 0.0660188C143.376 0.11157 141.24 0.254279 145.917 0.202163C144.064 -0.0286946 152.388 0.0930855 153.904 0.157721C153.599 0.126173 153.294 0.0946594 152.989 0.0631784C154.498 0.150534 154.774 0.0747645 155.115 0.080249C156.501 0.102452 158.373 0.188376 159.655 0.187608C161.151 0.186882 161.172 0.0460283 162.906 0.110294C162.493 0.0769167 162.085 0.0436202 161.667 0.0103231C162.872 0.0241786 164.07 0.0384368 165.278 0.0531643C162.485 0.223255 165.879 0.0655065 166.105 0.0630727C166.463 0.0584935 165.949 0.131664 166.547 0.12587C166.608 0.124702 166.521 0.0521899 167.441 0.0499739C169.355 0.0457467 169.053 0.134339 169.859 0.13875C169.933 0.13882 169.674 0.0721381 171.068 0.0665888C175.502 0.0499114 171.046 0.115867 170.876 0.12383C170.654 0.13424 172.165 0.41488 168.411 0.293586C169.67 0.332484 169.797 0.453269 169.939 0.457191C170.064 0.460386 172.255 0.459023 172.377 0.455891C173.452 0.423101 172.508 0.334298 172.717 0.321166C172.887 0.310449 175.517 0.437082 176.138 0.195944C177.399 0.433204 175.407 0.396092 173.299 0.415324C172.99 0.459547 175.308 0.522453 175.431 0.523405C178.428 0.546774 176.77 0.34685 177.427 0.23268C177.774 0.172996 178.991 0.310543 177.867 0.133731C180.581 0.138644 178.934 0.222031 179.109 0.237829C179.373 0.26114 180.324 0.221255 180.443 0.228697C180.618 0.239674 180.01 0.292418 180.698 0.318805C180.813 0.322766 181.924 0.232637 180.493 0.172483C182.405 0.203318 182.249 0.117021 182.897 0.294316C184.22 -0.0181713 183.851 0.494796 184.369 0.517742C185.746 0.578465 185.349 0.320066 185.422 0.308306C185.923 0.233136 189.745 0.357893 190.688 0.331081C190.314 0.510638 187.662 0.30277 187.067 0.332773C185.087 0.432026 189.857 0.451702 188.417 0.668227C189.021 0.610863 189.622 0.553544 190.225 0.496321C191.327 0.655828 189.76 0.704181 192.732 0.680835C193.22 0.557911 190.631 0.67926 191.151 0.583882C191.457 0.527812 193.181 0.533073 193.215 0.502298C193.25 0.465083 191.691 0.493318 191.938 0.438163C192.475 0.318701 198.155 0.498499 193.83 0.52003C195.037 0.530749 195.654 0.785281 196.701 0.719574C197.378 0.677061 193.577 0.292275 199.285 0.418859C199.405 0.537165 197.002 0.427731 196.94 0.436042C196.852 0.448033 197.284 0.716881 197.359 0.730754C197.624 0.776091 203.457 0.701716 204.685 0.849837C204.198 0.691048 209.093 0.876559 209.624 0.837188C209.766 0.826146 209.237 0.725963 209.389 0.717988C210.333 0.670929 212.894 0.870864 214.08 0.890958C215.408 0.913436 215.24 0.830532 215.314 0.831659C215.898 0.843966 215.431 0.892458 215.788 0.897083C216.325 0.903808 220.041 0.965918 220.225 0.95724C220.279 0.95444 219.676 0.853795 220.484 0.847552C220.625 0.846554 220.527 0.954287 222.929 0.941098C225.819 0.925505 220.924 0.776581 222.126 0.679188C223.981 0.868556 223.922 0.706253 224.424 0.726139C224.599 0.733267 225.89 0.889249 227.292 0.901198C226.285 0.908683 225.279 0.916343 224.269 0.924123C225.263 0.962462 227.176 0.960586 228.002 1.00006C228.402 1.01923 228.071 1.12717 228.938 1.13702C229.122 1.13853 229.859 0.87438 227.582 0.964062C227.401 0.863208 228.484 0.943123 228.985 0.922843C229.061 0.919649 229.363 0.7601 230.001 0.871614C230.153 0.8991 228.479 1.35193 232.787 1.0711C232.927 1.06207 232.442 0.994741 232.579 0.984407C232.673 0.977411 233.777 1.01861 233.899 1.012C234.024 1.00481 233.492 0.931184 233.641 0.920604C234.403 0.866016 235.397 1.14089 233.829 1.09687C234.353 1.13702 234.876 1.1772 235.399 1.21742C234.842 1.01319 236.221 1.1752 236.942 1.18056C241.586 1.21575 238.479 1.03927 239.279 0.98616C240.566 0.901153 239.581 1.21991 241.485 1.15014C241.662 1.14371 239.363 0.96393 243.853 1.11756C243.183 1.11205 242.525 1.10683 241.864 1.1016C242.238 1.29678 244.259 1.12783 244.416 1.12782C246.184 1.1312 244.993 1.17942 247.607 1.12591C247.84 1.12109 248.345 1.17629 248.851 1.16162C250.933 1.10102 246.116 1.05705 245.989 0.978625C245.923 0.939688 251.105 1.03697 251.281 1.05815C252.035 1.15006 248.932 1.05263 249.521 1.16081C249.739 1.19871 257.126 1.25589 258.589 1.32114C260.31 1.39653 261.069 1.66695 261.086 1.37908C261.563 1.67062 261.99 1.48547 262.207 1.49141C264.833 1.56597 264.868 1.56955 267.118 1.58476C267.616 1.58827 268.028 1.68191 268.209 1.67084C268.313 1.66407 268.12 1.56856 268.63 1.54992C269.355 1.5247 273.52 1.69967 273.857 1.75728C274.171 1.81416 272.066 1.74435 272.445 1.83523C273.962 1.87315 275.431 1.88139 276.935 1.92014C277.561 1.93653 277.235 1.98844 277.511 1.99513C277.633 1.99821 279.832 1.991 279.736 1.96758C279.512 1.91231 272.772 1.81249 274.549 1.74545C274.894 1.73247 276.099 1.89093 275.91 1.72348C281.939 1.88001 287.969 2.04241 293.986 2.21173C290.544 2.25847 286.608 2.06525 283.003 2.00253C282.495 1.99343 280.82 1.94343 281.024 2.03036C284.119 2.11471 287.962 2.15216 290.906 2.26971C291.002 2.27357 290.648 2.34027 291.007 2.35981C291.686 2.39635 293.839 2.32343 294.189 2.36223C294.252 2.37081 293.035 2.44214 293.403 2.5125C294.343 2.69295 294.605 2.34469 295.439 2.36737C295.757 2.37608 296.964 2.44524 298.199 2.50279C299.536 2.56352 300.895 2.61185 301.428 2.56926C302.561 2.47997 298.285 2.43025 298.586 2.3431C301.53 2.31502 304.411 2.48342 307.199 2.53907C307.247 2.53994 306.83 2.45597 307.442 2.46044C308.501 2.46819 308.761 2.5794 309.297 2.60936C309.879 2.64141 311.826 2.67515 312.095 2.72029C312.127 2.72611 311.721 2.81977 311.665 2.82127C310.818 2.84277 310.511 2.7003 310.434 2.69663C310.14 2.68418 309.847 2.72858 309.574 2.71877C309.13 2.70267 308.861 2.64825 308.298 2.63026C307.901 2.61749 308.282 2.71857 307.899 2.70503C307.763 2.69974 306.226 2.45304 306.071 2.66332C306.026 2.72567 318.612 3.13027 319.875 3.11751C318.816 3.06246 317.692 3.00624 316.643 2.9526C318.821 3.07285 321.465 2.97636 321.652 3.23475C329.742 3.48988 337.927 3.75848 346.076 4.20417C347.529 4.30531 346.727 4.41945 349.128 4.51533C348.518 4.42609 347.893 4.33758 347.277 4.25119C348.504 4.34345 353.959 4.78715 354.842 4.83505C354.934 4.83876 355.067 4.75052 355.84 4.76928C356.019 4.77373 356.232 4.78385 356.485 4.80209C357.691 4.88964 357.873 5.01615 358.517 5.09177C359.055 5.15491 359.664 5.17886 359.825 5.19905C359.948 5.21467 359.991 5.286 360.285 5.32368C361.219 5.44291 360.474 5.1861 361.385 5.48646C361.159 5.47438 360.931 5.4623 360.705 5.45058C361.83 5.58196 363.362 5.82326 361.696 5.71951C361.41 5.70206 361.661 5.65932 361.449 5.64022C353.106 4.93177 359.755 5.61838 362.688 5.79134C363.429 5.95191 367.641 6.30865 367.78 6.34667C367.971 6.39428 367.243 6.39631 368.18 6.56058C368.377 6.586 374.005 7.16231 371.965 7.06208C371.544 7.0384 368.854 6.71603 368.203 6.65434C369.71 7.01263 373.325 7.12845 373.727 7.18768C375.349 7.41178 370.586 6.9957 374.242 7.45184C377.055 7.81414 374.427 7.35418 375.518 7.42972C375.673 7.44059 375.995 7.48413 376.383 7.5401C377.532 7.70402 379.279 7.98834 379.236 7.83617C380.331 7.96575 379.677 7.98019 379.811 8.00606C379.943 8.02918 382.096 8.276 382.784 8.42111C382.867 8.43859 382.587 8.49975 382.673 8.52079C382.841 8.55861 384.905 8.84814 384.988 8.85306C385.041 8.85511 384.564 8.69297 384.769 8.70228C385.009 8.71284 386.983 9.03749 387.095 9.02954C387.255 9.01492 384.81 8.66476 385.232 8.62949C386.355 8.82574 388.197 9.04485 388.947 9.08068C388.763 9.07515 387.675 8.90941 387.297 8.84289C387.499 8.72684 389.833 9.09149 389.017 9.08111C389.536 9.09918 389.193 9.01281 389.487 8.9995C389.565 8.99658 390.285 9.10537 390.429 9.1022C390.448 9.10003 389.713 8.93047 389.866 8.92446C390.144 8.91382 392.327 9.2638 392.501 9.30438C392.997 9.42103 391.212 9.19435 391.053 9.23153C391.03 9.23768 392.525 9.58998 392.547 9.60404C392.617 9.73009 390.947 9.38924 391.123 9.52005C391.539 9.60629 391.951 9.6919 392.363 9.77719C390.743 9.63315 387.772 9.11603 386.984 9.11425C389.381 9.45015 391.873 9.84141 391.826 10.1026C391.807 10.2129 390.768 10.1188 390.805 10.1532C390.939 10.2772 392.384 10.3883 392.437 10.4017C392.48 10.4146 392.499 10.4236 392.498 10.4294C392.498 10.4294 392.498 10.4295 392.498 10.4295C392.485 10.4882 390.449 10.2169 390.34 10.2274C390.161 10.2486 391.037 10.5858 391.029 10.629C390.998 10.6333 389.538 10.4546 390.016 10.6066C390.5 10.7602 391.766 10.9578 391.812 10.973C392.044 11.056 389.823 10.7552 389.75 10.7713C389.712 10.7795 390.894 11.0489 390.923 11.0781C390.949 11.1071 390.036 11.0199 389.666 11.0409C389.391 11.0566 390.159 11.2205 390.022 11.2084C389.923 11.1991 387.825 10.8722 387.72 10.8662C387.563 10.8571 388.046 11.0017 387.971 11.0075C387.865 11.0161 387.192 10.8866 387.276 10.9253C387.339 10.9541 389.931 11.5971 389.904 11.6569C389.858 11.7594 387.112 11.081 389.636 11.905C389.654 11.9106 390.288 11.9783 390.306 11.9836C390.682 12.1214 388.645 11.9281 391.118 12.2897C386.501 11.7119 390.52 12.3617 389.813 12.4365C389.54 12.4651 387.752 12.2165 387.745 12.226C387.903 12.3403 388.481 12.3605 388.668 12.4336C388.769 12.4739 387.163 12.3195 387.511 12.4354C387.692 12.4951 389.386 12.747 389.454 12.7637C390.116 12.925 389.284 12.8588 389.425 12.9223C389.518 12.9647 390.541 13.1254 390.565 13.1341C390.608 13.1514 389.203 13.0461 388.908 13.0397C388.684 13.0353 389.502 13.21 389.346 13.1991C388.41 13.1331 386.48 12.631 388.327 13.2014C388.44 13.2365 389.156 13.3406 389.178 13.3475C389.608 13.4947 388.287 13.2965 388.043 13.3244C387.622 13.3724 389.525 13.6048 387.937 13.4379C389.107 13.6936 389.769 13.7938 391.154 13.987C387.313 13.45 385.92 13.5262 390.173 14.1792C388.818 13.9647 388.944 14.1497 388.541 14.0901C388.288 14.0524 386.357 13.5878 387.197 14.088C387.305 14.1508 388.501 14.278 388.115 14.3125C385.265 13.846 388.044 14.3615 388.047 14.3745C387.973 14.5774 381.038 13.332 379.848 13.2045C378.46 13.037 377.207 13.0433 376.907 13.0043C375.918 12.8756 376.75 12.897 376.533 12.8369C376.464 12.818 376.142 12.7856 375.722 12.7498C374.805 12.6708 373.427 12.5814 373.333 12.5643C372.789 12.4629 373.358 12.4278 373.301 12.4159C372.632 12.268 368.824 11.9206 367.761 11.7907C367.789 11.8591 369.922 12.0929 368.579 12.0558C367.011 12.0143 366.953 11.7173 366.914 11.6999C363.072 11.3071 359.222 10.963 355.367 10.6541C352.072 10.3867 348.809 10.1708 345.498 9.9998C345.598 10.1537 350.248 10.3097 350.36 10.3456C350.975 10.4889 343.101 10.0378 342.125 9.95734C342.857 10.0244 343.607 10.0937 344.323 10.1631C343.058 10.277 340.292 9.9198 338.462 9.9261C337.883 9.9283 338.983 10.0417 338.973 10.0462C338.315 10.0883 337.254 9.99312 338.053 9.93169C336.403 9.95578 336.694 9.86899 335.422 9.81386C335.358 9.81123 335.88 9.90248 334.915 9.89681C334.452 9.8931 332.006 9.80751 331.658 9.85934C331.51 9.88075 332.778 10.2036 332.931 9.9686C335.591 10.1801 333.791 9.88935 334.825 9.93211C334.983 9.93972 334.612 10.0579 337.215 10.0946C336.737 10.3168 333.705 10.024 333.201 10.0367C332.128 10.0583 336.526 10.3407 337.316 10.1855C336.919 10.3591 337.648 10.2235 338.601 10.2699C339.675 10.3223 339.209 10.3595 339.784 10.3839C341.356 10.4526 340.715 10.2913 342.006 10.4696C340.748 10.0396 344.233 10.5219 345.243 10.6754C343.591 10.6084 341.935 10.5504 340.269 10.4978C340.365 10.5215 340.462 10.5452 340.557 10.5689C340.104 10.5465 339.697 10.5266 339.25 10.5052C339.322 10.4895 339.393 10.4737 339.464 10.4579C337.209 10.4866 336.656 10.3311 336.478 10.3222C334.113 10.2158 331.378 10.1228 328.978 10.0455C328.631 10.0346 328.833 10.1614 326.245 9.98628C325.4 9.93023 326.205 9.85985 325.238 9.84487C324.07 10.0674 324.087 9.86274 323.734 9.85201C322.695 9.82158 322.106 9.86864 322.008 9.86648C320.745 9.84023 318.947 9.77964 317.535 9.75117C317.508 9.7514 318.225 9.84983 317.335 9.80245C317.037 9.78593 314.248 9.37381 311.751 9.421C312.406 9.46038 313.051 9.49964 313.685 9.53879C312.927 9.48643 307.655 9.4405 308.938 9.56285C309.754 9.63803 311.654 9.46806 311.862 9.68271C310.149 9.57381 300.386 9.43569 299.686 9.37312C299.582 9.3638 300.225 9.31062 300.081 9.29864C300.003 9.29206 298.829 9.27223 298.047 9.2492C297.757 9.24054 297.526 9.23136 297.445 9.22221C297.317 9.20785 297.816 9.19321 298.048 9.17588C298.133 9.16994 298.185 9.16364 298.164 9.15685C298.156 9.15478 298.115 9.15182 298.049 9.14831C297.538 9.12021 295.326 9.05601 295.176 9.12859C295.87 9.10974 297.764 9.18204 296.768 9.23145C296.64 9.23749 295.974 9.16773 295.816 9.17552C294.781 9.22602 296.66 9.27689 298.045 9.30761C298.656 9.32112 299.18 9.33104 299.38 9.33585C298.969 9.34268 298.522 9.34344 298.045 9.33978C295.434 9.32121 291.944 9.16107 289.252 9.16378C287.989 9.06593 291.125 9.09556 289.699 9.00632C286.723 8.82116 288.906 9.08731 288.814 9.09436C288.082 9.1501 285.504 8.71287 285.519 9.00475C284.442 8.9384 284.796 8.90897 283.257 8.91526C283.46 8.93963 283.662 8.96399 283.863 8.98836C282.131 9.12108 278.563 8.62292 278.824 8.59578C279.559 8.52358 281.421 8.69712 281.576 8.69708C281.806 8.69701 282.505 8.41523 285.082 8.73335C286.155 8.55714 280.96 8.5141 283.33 8.42788C281.707 8.41586 275.188 8.14695 274.235 8.21589C274.121 8.22503 274.649 8.43296 273.016 8.30045C272.239 8.23739 274.113 8.27167 273.758 8.21971C272.689 8.05781 257.938 7.86976 255.153 7.83106C254.971 7.82807 255.039 7.76793 254.86 7.76534C254.307 7.75726 252.308 7.81379 251.333 7.76879C253.358 7.91732 249.422 7.85812 248.405 7.8286C246.884 7.78384 246.983 7.67763 246.326 7.64365C243.783 7.51242 239.862 7.70504 237.88 7.43418C237.982 7.67349 234.485 7.26402 232.873 7.23744C231.618 7.21647 229.805 7.34651 231.491 7.46786C229.336 7.42418 227.041 7.43456 225.021 7.41978C224.686 7.41736 225.148 7.35373 224.576 7.35182C224.524 7.35216 224.452 7.42001 223.96 7.42011C219.893 7.42223 221.875 7.30416 221.116 7.25034C220.693 7.22029 220.38 7.20394 220.15 7.19679C222.507 7.21605 225.249 7.22864 225.973 7.23729C225.358 7.07587 220.725 7.1911 219.379 7.13188C219.332 7.12974 219.497 7.04815 219.449 7.0469C219.448 7.04688 219.447 7.04687 219.446 7.04686C218.941 7.03327 215.705 7.02029 216.369 7.12934C216.548 7.15847 218.039 7.17849 219.8 7.19387C219.323 7.20602 219.678 7.30488 219.593 7.30772C218.574 7.33994 216.065 7.21414 215.183 7.19009C214.981 7.18467 214.994 7.24505 214.961 7.24475C214.155 7.22037 214.488 7.05291 213.658 7.21919C212.2 6.98571 216.396 7.22367 216.101 7.08079C215.88 6.96945 206.546 6.90684 206.572 7.07713C206.54 7.05869 206.412 7.03472 206.149 7.00601C205.564 6.94211 202.97 6.92866 202.521 6.95457C202.445 6.9598 202.473 7.1239 202.38 7.12431C202.145 7.12517 198.972 6.96 197.786 7.04376C198.426 7.07386 199.065 7.10404 199.705 7.1343C195.839 7.09198 196.437 7.14791 197.724 7.21105C197.788 7.21221 197.851 7.21913 197.912 7.22048C198.91 7.26783 200.19 7.31738 200.209 7.33053C200.281 7.37999 193.723 7.33495 194.986 7.19711C195.162 7.1781 198.196 7.2792 196.695 7.15422C196.432 7.13226 194.483 7.14206 194.381 7.12908C193.697 7.04209 197.953 6.98296 197.434 6.86453C196.4 6.96049 195.076 6.88944 193.891 6.90458C193.351 6.91139 193.218 6.99211 193.151 6.99295C192.157 7.00394 192.716 6.92373 192.384 6.9224C192.206 6.92195 190.246 7.08508 190.619 6.83633C184.163 6.95817 188.833 7.00296 192.79 7.03017C191.537 7.10892 189.09 7.03965 187.987 7.05029C187.591 7.05418 187.825 7.14073 187.157 7.15111C185.785 7.17165 179.23 7.01586 177.527 6.98007C178.577 6.95893 178.272 6.86459 177.46 6.86428C176.649 6.86407 177.329 6.99214 177.171 7.00403C176.999 7.01599 173.203 6.92857 172.576 6.94019C175.427 6.91713 174.786 6.82064 172.364 6.79312C172.717 6.76933 173.064 6.74552 173.415 6.72178C171.997 6.748 168.997 6.58758 168.181 6.624C168.052 6.62983 168.514 6.70984 168.441 6.71312C167.727 6.74095 165.264 6.64718 165.152 6.67289C165.054 6.69416 166.102 6.76504 165.713 6.79445C165.632 6.80064 164.621 6.69045 163.63 6.71041C163.262 6.71773 163.483 6.79179 163.39 6.79548C162.618 6.8262 163.076 6.70604 161.663 6.71817C160.622 6.72728 159.847 6.84315 158.417 6.7968C163.123 6.97256 159.159 6.88868 157.204 6.92661C156.889 6.93269 157.165 7.06575 155.273 6.99378C159.297 6.77146 154.122 6.86233 153.078 6.85675C153.02 6.85575 153 6.7685 152.486 6.76539C152.442 6.76533 152.504 6.82441 152.027 6.82737C147.465 6.85649 150.382 6.79862 149.515 6.73803C149.144 6.71216 146.935 6.79044 146.346 6.79156C146.209 6.79152 146.271 6.73041 145.737 6.7319C144.793 6.73473 143.951 6.79885 143.333 6.80338C143.261 6.80364 143.256 6.70692 142.088 6.73738C141.76 6.74591 141.392 6.78 141.858 6.80803C143.393 6.90001 146.378 6.74621 148.115 6.84156C149.714 6.92789 144.671 6.92527 144.4 6.92621C144.303 6.92638 145.293 6.87977 144.287 6.86894C143.425 6.85989 141.882 7.02523 140.595 6.98863C140.497 6.98587 139.473 6.84438 139.521 6.83617C139.562 6.83005 141.137 6.79968 140.909 6.75874C140.881 6.75403 139.88 6.75477 139.75 6.72434C139.591 6.68725 139.161 6.32332 138.948 6.31425C138.403 6.29184 138.758 6.37475 138.405 6.3691C138.012 6.36289 137.116 6.33119 136.34 6.32035C135.609 6.31036 134.982 6.31801 134.941 6.37856C135.376 6.38543 135.813 6.39238 136.251 6.39942C133.82 6.4153 134.859 6.46792 134.515 6.492C134.146 6.51819 134.249 6.40707 133.437 6.39814C133.263 6.39574 129.865 6.42727 129.922 6.47403C131.814 6.39463 131.115 6.53378 131.201 6.53593C131.538 6.54399 131.948 6.46613 132.388 6.46669C135.486 6.47256 132.361 6.6 133.093 6.62977C133.344 6.63976 133.847 6.57323 133.954 6.57642C134.303 6.58669 134.309 6.67262 134.542 6.6653C135.086 6.64835 134.451 6.52772 134.494 6.52133C134.977 6.44434 136.894 6.5369 135.702 6.67055C135.994 6.68972 136.182 6.67411 136.34 6.65334C136.563 6.62338 136.727 6.58267 137.057 6.62038C137.995 6.72705 136.956 6.72128 136.34 6.72995C136.223 6.73156 136.121 6.73366 136.049 6.73705C134.408 6.81531 133.919 6.75407 131.633 6.78047C130.799 6.78992 129.807 6.87094 129.423 6.87645C129.176 6.8797 126.896 6.61606 126.834 7.04181C125.935 7.00412 124.529 6.73006 123.616 6.74745C122.796 6.76323 123.058 6.91242 122.982 6.91862C122.865 6.92833 121.878 6.92171 121.533 6.94495C121.135 6.97232 121.334 7.0286 120.704 7.05567C119.141 7.12308 119.186 6.96951 119.025 6.9605C117.176 6.85723 117.988 7.07046 117.579 7.09072C117.174 7.10848 111.809 7.0663 110.665 7.13342C111.125 7.09844 111.587 7.06355 112.051 7.02876C111.219 6.94016 110.349 7.10449 110.332 6.93286C110.166 7.21165 108.478 7.0424 107.954 7.055C107.751 7.05999 107.767 7.10709 107.513 7.11171C106.516 7.12997 104.327 7.11645 103.772 7.14698C101.458 7.27653 107.368 7.38113 107.841 7.38819C106.902 7.39338 101.635 7.51564 104.066 7.62121C104.448 7.6374 105.104 7.50598 105.312 7.49885C106.727 7.45153 105.615 7.57482 105.726 7.58419C105.914 7.59919 106.848 7.48174 107.097 7.49201C107.18 7.49529 106.646 7.60137 108.012 7.58962C107.331 7.69344 103.538 7.65543 103.023 7.68506C102.848 7.69556 103.953 7.89008 100.706 7.72742C100.743 7.74632 100.781 7.76522 100.819 7.78411C98.9815 7.81513 97.1958 7.8472 95.3566 7.88177C95.5545 7.83426 96.5822 7.72988 95.2873 7.76752C94.5441 7.78934 95.0955 7.88072 95.0277 7.88459C94.3877 7.91534 82.5937 8.08013 80.3271 8.14384C79.5408 8.16291 77.4125 8.28707 77.2316 8.29258C76.2367 8.32099 72.7531 8.3466 72.0592 8.37457C71.6278 8.39183 72.0397 8.46536 71.6547 8.47043C71.2975 8.47504 71.6656 8.38611 71.5595 8.38523C70.6567 8.375 63.9409 8.64784 62.3264 8.61814C63.2989 8.61331 68.187 8.328 68.0895 8.27475C68.0779 8.26721 66.87 8.23622 66.628 8.27222C66.2122 8.21311 64.8619 8.4595 64.0858 8.43841C64.0009 8.43598 64.331 8.30826 62.9807 8.32263C62.518 8.3276 61.3108 8.45268 60.0759 8.38333C58.3005 8.47799 49.0071 8.60713 48.3546 8.75973C48.334 8.76708 49.6448 8.76895 48.7619 8.84969C47.5907 8.95715 48.6497 8.68822 47.2666 8.71302C47.0522 8.71632 43.2314 8.86784 43.1175 8.88683C41.9742 9.05733 45.2925 8.99803 45.2632 9.01472C45.128 9.05746 42.3875 9.17368 42.2543 9.16947C42.1476 9.16367 44.4212 8.9112 41.6839 9.07138C41.9962 9.08144 42.3108 9.09145 42.6278 9.10144C41.3352 9.18641 41.2205 9.06991 40.9118 9.07323C39.9465 9.08349 38.9253 9.30259 37.3578 9.13213C36.9466 9.08673 37.6234 8.99582 37.5724 8.98863C37.0706 8.92566 36.4769 9.16328 35.7218 9.02914C35.672 9.01896 37.3801 8.86042 34.3797 8.96876C34.5838 8.97682 34.7892 8.98484 34.9959 8.99283C34.585 9.04208 31.551 9.17336 31.1296 9.18073C30.101 9.19775 30.7346 9.08851 30.1562 9.09559C30.0628 9.09682 29.9395 9.10087 29.7762 9.10864C30.5499 9.23255 26.8971 9.38611 27.1066 9.24738C26.6039 9.43036 23.511 9.41637 22.046 9.46577C21.113 9.49742 19.252 9.63686 18.9599 9.63904C18.5994 9.64183 18.6998 9.52591 18.0635 9.52399C17.8785 9.52357 15.9733 9.67493 14.2885 9.61939C13.9526 9.6091 13.2708 9.44318 13.8702 9.37402C14.8994 9.25556 16.8776 9.33745 16.8402 9.22626C16.8047 9.1072 14.1769 9.27372 13.4614 9.28368C10.1739 9.32904 12.0665 9.1331 11.9806 9.09742C11.7624 9.01115 9.967 9.07823 9.89312 9.07236C9.58035 9.04592 10.8525 8.92605 10.8648 8.86813C10.8895 8.79248 9.15985 8.71913 9.54923 8.68003C10.0999 8.62467 11.7063 8.67974 11.797 8.67109C13.1132 8.55133 11.3136 8.44305 10.8055 8.37627C10.6541 8.35556 11.2519 8.29126 11.1272 8.28805C9.22664 8.23968 10.7313 8.54512 9.47342 8.56595C8.34172 8.58482 9.79717 8.4195 9.74857 8.41495C9.69564 8.40998 8.33883 8.452 8.13426 8.41903C8.02846 8.40283 11.5126 8.05781 11.3739 7.96358C10.2551 8.02545 9.14084 8.08698 8.02559 8.14828C7.92822 8.02262 9.53779 8.06057 9.70732 8.04117C10.0401 8.0026 9.10231 7.97063 9.1416 7.92839C9.15997 7.90178 10.2623 7.76987 9.2633 7.76722C8.92743 7.76596 8.21311 7.88196 6.97225 7.8332C11.2769 7.5627 8.28952 7.59588 8.16103 7.55472C8.02809 7.51369 10.0952 7.33277 7.59057 7.44053C7.47168 7.1934 7.64798 7.35908 8.34903 7.29007C9.21799 7.20489 7.20722 7.19374 10.3871 7.1433C10.1894 7.03278 7.65806 7.13103 7.51103 7.12673C7.39347 7.12237 7.96003 7.04447 7.75623 7.03206C5.36229 6.88916 7.00475 6.93504 6.30449 6.81452C6.25093 6.8035 3.97686 6.8292 5.70037 6.74777C8.83455 6.59931 10.1517 6.71849 10.666 6.34374C8.34509 6.27196 5.53694 6.60074 4.83418 6.62903C3.7522 6.67235 4.87405 6.56057 4.73821 6.54492C4.68993 6.54004 3.76007 6.57838 3.74757 6.57302C3.08036 6.32462 7.88501 6.42418 9.39968 6.32244C8.98813 6.29637 8.585 6.26997 8.17811 6.24367C8.72884 6.22253 9.28186 6.20124 9.82718 6.18018C7.21504 6.19122 9.73047 6.15272 10.3841 5.90917C10.524 5.85472 8.80518 6.00088 10.7639 5.79349C9.31483 5.81347 9.77459 5.75212 8.46659 5.86063C8.49671 5.77143 11.4469 5.56681 12.6053 5.47979C8.49701 5.52769 10.8419 5.76779 7.29028 5.72246C6.63365 5.85492 8.3341 5.77356 8.19042 5.79665C7.69616 5.879 6.52847 5.81739 5.13458 6.0933C4.90712 6.13854 5.87887 6.21947 4.44644 6.26388C4.28892 6.2686 3.377 6.20212 3.3858 6.19469C3.50697 6.11366 4.4062 6.11122 4.44297 6.07785C4.47645 6.04634 3.47239 6.09948 3.46839 6.09118C3.4344 5.99609 4.30911 6.0252 4.17941 5.99956C3.90676 5.94351 0.274919 5.86228 5.00221 5.75884C1.07962 6.00395 4.50951 5.88267 6.03138 5.7873C6.41843 5.76322 6.51727 5.70225 7.07222 5.66272C7.78038 5.61191 8.63 5.60937 8.99132 5.58597C9.39039 5.56012 7.1235 5.50491 10.3977 5.42887C8.72249 5.35359 5.79265 5.60129 4.15832 5.563C0.852168 5.48586 6.45483 5.2503 7.02899 5.21082C7.18479 5.20029 6.65956 5.14114 6.76362 5.13272C6.93609 5.11952 10.1047 5.043 10.4222 4.96724C10.7337 4.89192 9.26324 5.01153 9.15553 4.94837C9.08989 4.90578 12.9168 4.68897 10.8399 4.73244C9.41713 4.76231 6.78254 5.03673 6.33376 4.85762C8.44145 4.76738 10.5369 4.67651 12.6345 4.58507C11.4819 4.55235 10.3301 4.51945 9.17675 4.48637C11.5288 4.37918 13.5933 4.38858 15.8122 4.20232C10.4208 4.15932 17.5564 3.94995 17.6383 3.91782C17.6537 3.9 15.5259 3.78426 15.1939 3.76095C17.0529 3.6199 22.7815 3.37532 19.4209 3.25947C20.0371 3.29084 21.4865 3.10545 21.4757 3.09583C21.2713 2.99817 18.0983 3.18162 18.6042 3.06826C19.2042 2.93629 20.0722 3.05427 20.9855 3.0091C25.7578 2.77301 24.4404 2.27215 29.22 2.18415C29.1234 2.16814 29.0272 2.15212 28.9314 2.13608C29.2503 2.12631 29.5732 2.11639 29.9001 2.10633C34.7823 1.95627 39.6675 1.80817 44.5678 1.67324C46.591 1.43648 52.033 1.16012 54.6917 1.10078C55.2505 1.08734 57.8559 1.09946 58.0719 1.10903C58.4421 1.12789 56.4065 1.19778 57.3271 1.22664C57.534 1.23108 61.9902 1.14386 61.6713 1.05957C61.1737 1.06207 59.5929 1.15297 59.3434 1.138C57.5394 1.02421 71.301 0.789207 71.9847 0.719169C71.6807 0.695758 71.3778 0.672373 71.0761 0.649013C71.934 0.643842 72.8014 0.638874 73.6785 0.634131ZM34.0625 9.3531C33.5232 9.46679 32.2543 9.44244 31.4618 9.4979C31.0711 9.52567 30.5896 9.59994 30.177 9.66407C29.4224 9.77729 28.8817 9.85948 29.367 9.61078C29.633 9.59617 29.9019 9.58146 30.1734 9.56664C31.4513 9.49603 32.748 9.42469 34.0625 9.3531ZM56.8783 8.73722C55.838 8.7171 56.6334 8.4909 57.4963 8.55028C57.5931 8.5571 58.2964 8.76414 56.8783 8.73722ZM45.9016 8.98321C45.9437 8.97909 46.8475 8.95463 46.8808 8.95675C47.694 9.01135 44.9716 9.08461 45.9016 8.98321ZM98.9289 7.65362C97.774 7.67775 98.6111 7.8508 99.3313 7.76554C99.3766 7.76013 99.005 7.65218 98.9289 7.65362ZM98.1077 7.6597C97.2123 7.50661 95.4237 7.86644 96.8509 7.81269C96.9875 7.80732 98.1483 7.66714 98.1077 7.6597ZM53.1529 8.7677C53.2656 8.70094 54.3369 8.69899 54.8028 8.70026C54.7903 8.75835 53.5956 8.74703 53.1529 8.7677ZM80.5301 8.05969C80.5645 8.00868 76.8319 8.08831 76.5636 8.16029C77.173 8.11883 80.4764 8.10499 80.5301 8.05969ZM90.1557 7.81537C90.0592 7.80827 88.7731 7.84273 88.8124 7.88601C89.4375 7.93297 90.5836 7.84729 90.1557 7.81537ZM109.305 7.57054C109.377 7.55894 108.404 7.28865 110.698 7.45102C111.035 7.47481 109.832 7.55887 109.952 7.5678C110.203 7.58499 110.401 7.59226 110.56 7.59243C109.492 7.62535 108.388 7.64722 108.273 7.63144C107.762 7.55651 109.281 7.57528 109.305 7.57054ZM119.348 7.28268C119.567 7.23568 120.981 7.25152 121.306 7.26852C121.361 7.27174 121.119 7.39276 121.76 7.38024C122.273 7.37005 121.514 7.25156 122.501 7.26587C123.497 7.28035 122.167 7.37466 122.255 7.38047C122.37 7.38793 123.913 7.32505 123.867 7.39664C123.827 7.44955 122.185 7.42221 121.764 7.43588C121.232 7.45328 121.876 7.5376 120.99 7.52376C120.433 7.51519 120.741 7.3587 120.623 7.35157C120.523 7.34572 118.592 7.44682 119.351 7.28315C119.35 7.283 119.349 7.28284 119.348 7.28268ZM110.85 7.58294C110.769 7.5889 110.675 7.59254 110.56 7.59243C110.657 7.58943 110.754 7.58611 110.85 7.58294ZM37.0762 9.1764C37.6148 9.20486 36.0305 9.32279 35.3953 9.28329C35.3882 9.23304 36.9904 9.17197 37.0762 9.1764ZM111.845 7.44806C113.451 7.47303 112.265 7.53618 110.85 7.58294C111.299 7.54975 111.308 7.43985 111.845 7.44806ZM66.628 8.27222C66.6956 8.28206 66.7389 8.29896 66.745 8.32837C66.5669 8.30053 66.5508 8.28358 66.628 8.27222ZM70.3466 8.23362C71.6287 8.11302 69.0214 8.17886 69.0457 8.24299C69.0524 8.26708 70.2936 8.23839 70.3466 8.23362ZM100.42 7.64312C100.302 7.63587 102.116 7.34081 99.4763 7.57857C100.891 7.59238 99.3986 7.64119 99.4218 7.66474C99.4873 7.73211 101.834 7.63667 102.355 7.66028C102.759 7.5329 100.801 7.66714 100.423 7.64308C100.422 7.6431 100.421 7.64311 100.42 7.64312ZM137.469 7.28612C137.274 7.33033 136.819 7.33894 136.341 7.33827C136.034 7.33786 135.719 7.33379 135.454 7.3325C135.616 7.29619 135.955 7.28368 136.34 7.28074C136.714 7.27783 137.131 7.28424 137.469 7.28612ZM316.48 9.80251C311.79 9.74563 311.204 9.43934 315.474 9.6655C315.562 9.6702 316.765 9.78045 316.48 9.80251ZM276.259 8.81702C275.827 8.68109 277.261 8.68905 278.242 8.76137C278.461 8.77759 279.266 8.92279 278.342 8.92945C278.376 8.77574 276.941 8.688 276.259 8.81702ZM112.751 7.35871C113.227 7.26968 114.63 7.31873 115.387 7.32583C114.924 7.39917 113.426 7.37947 112.751 7.35871ZM301.085 9.27042C300.599 9.24956 300.263 9.35269 300.348 9.36386C300.728 9.41484 301.636 9.34623 301.085 9.27042ZM108.139 7.38812C108.08 7.33784 109.963 7.27068 110.094 7.39508C109.693 7.38964 108.192 7.41935 108.139 7.38812ZM136.187 7.24913C136.097 7.24142 136.175 7.23166 136.34 7.22251C136.714 7.20139 137.545 7.18369 137.865 7.20141C137.833 7.24769 136.763 7.26173 136.34 7.25451C136.268 7.2533 136.215 7.25149 136.187 7.24913ZM293.134 9.12953C292.697 9.11034 291.59 9.08334 291.465 9.12544C291.313 9.1781 292.936 9.19431 293.134 9.12953ZM374.998 13.2423C375.051 13.2683 373.351 13.2052 372.606 13.082C371.19 12.8438 374.943 13.216 374.998 13.2423ZM305.759 9.32305C307.169 9.46227 305.604 9.32265 305.662 9.43502C306.628 9.46199 308.925 9.52349 307.342 9.37586C307.033 9.34724 306.205 9.3409 305.759 9.32305ZM304.477 9.25542C304.33 9.28787 303.328 9.37758 304.191 9.38982C304.59 9.3953 305.228 9.28453 304.477 9.25542ZM364.534 12.1384C363.309 11.9151 368.968 12.5381 369.128 12.5818C369.213 12.6002 369.268 12.6148 369.299 12.6255C369.509 12.6165 370.58 12.7293 370.693 12.8215C370.375 12.7791 369.499 12.6896 369.398 12.6701C369.355 12.6617 369.323 12.6547 369.301 12.6487C368.917 12.6705 364.771 12.1756 364.534 12.1384ZM355.134 11.205C355.199 11.2036 355.262 11.2028 355.323 11.2026C356.585 11.199 356.79 11.4425 356.673 11.4401C355.12 11.4137 356.142 11.3154 356.095 11.3029C356.03 11.2889 355.592 11.2815 355.318 11.262C355.146 11.2498 355.04 11.2326 355.138 11.2053C355.137 11.2052 355.135 11.2051 355.134 11.205ZM362.612 11.9139C362.671 11.9159 363.858 12.0363 363.907 12.0452C364.874 12.2202 361.51 11.88 362.612 11.9139ZM126.935 7.07169C127.784 7.09294 126.96 7.18665 126.378 7.15643C126.329 7.15343 126.176 7.05305 126.935 7.07169ZM303.796 9.26376C303.59 9.2412 298.508 9.0595 298.796 9.2034C299.246 9.19674 305.029 9.40186 303.796 9.26376ZM265.671 8.43307C266.57 8.45097 265.589 8.56168 265.108 8.50458C264.93 8.48338 265.445 8.42864 265.671 8.43307ZM105.586 7.2976C104.661 7.37868 104.849 7.13863 105.654 7.21141C105.685 7.21426 105.622 7.29443 105.586 7.2976ZM272.845 8.64437C269.769 8.66307 270.471 8.26679 274.527 8.48439C274.4 8.50012 274.273 8.51586 274.146 8.5316C278.792 8.68476 274.477 8.56673 273.318 8.56714C272.88 8.5673 273.246 8.64277 272.848 8.64492C272.847 8.64474 272.846 8.64455 272.845 8.64437ZM260.94 8.33779C257.964 7.99309 263.634 8.28537 265.295 8.27903C263.705 8.36928 261.615 8.31259 264.446 8.48784C260.33 8.43544 262.054 8.35179 261.886 8.33899C261.694 8.32466 261.067 8.35258 260.94 8.33779ZM268.817 8.48273C268.992 8.47757 270.298 8.5617 270.764 8.56107C270.113 8.64768 267.66 8.51833 268.817 8.48273ZM345.284 10.6208C345.384 10.5484 345.677 10.5054 346.676 10.5896C346.367 10.6114 345.707 10.6095 345.284 10.6208ZM33.0501 8.98052C32.3532 9.00035 30.9318 9.0231 31.3698 9.08886C31.4248 9.0938 33.0483 9.02647 33.0501 8.98052ZM288.979 8.86931C288.846 8.85667 284.912 8.76738 286.27 8.88179C286.695 8.91639 290.219 8.98045 288.979 8.86931ZM309.113 9.33856C308.764 9.3291 307.478 9.31237 307.444 9.32998C307.358 9.39142 308.949 9.39532 309.113 9.33856ZM29.4812 9.03149C29.3863 9.0269 27.2295 9.12012 27.4667 9.14918C27.9312 9.2036 29.7966 9.04775 29.4812 9.03149ZM130.053 6.87894C130.234 6.87553 130.474 6.95932 130.537 6.96008C130.698 6.96045 133.979 6.92076 132.724 7.03191C132.534 7.04964 127.744 7.0217 127.148 7.01423C126.909 6.89909 128.927 7.00204 129.424 6.98875C129.512 6.98622 129.567 6.88902 130.051 6.87943C130.052 6.87927 130.052 6.8791 130.053 6.87894ZM350.579 10.8521C350.73 10.7824 354.572 11.018 354.521 11.1083C353.207 11.0155 351.896 10.9293 350.579 10.8521ZM348.628 10.7149C347.82 10.6134 349.73 10.7123 350.3 10.7747C350.305 10.8239 348.756 10.7294 348.628 10.7149ZM301.741 8.88702C301.346 8.8959 302.564 9.03175 302.29 9.04632C302.108 9.05509 301.243 8.99472 300.971 9.02211C300.898 9.03112 301.75 9.15192 302.028 9.15404C302.401 9.15687 302.042 9.06893 302.448 9.07783C303.806 9.10779 304.898 9.19039 306.189 9.22006C306.303 9.22251 305.425 9.14522 306.392 9.16924C306.54 9.17283 307.436 9.27805 308.551 9.29299C311.129 9.09722 312.933 9.39685 316.158 9.38853C316.035 9.36065 313.634 9.23246 313.501 9.22681C310.816 9.1144 305.997 8.99201 303.217 8.92682C302.492 8.90962 302.843 8.9727 302.529 8.96739C302.28 8.96306 302.581 8.86845 301.741 8.88702ZM33.4252 8.91064C33.076 8.82183 31.9189 8.92837 31.1482 8.95137C31.423 9.03287 32.6829 8.91518 33.4252 8.91064ZM331.29 9.87281C330.926 9.86432 329.732 9.79446 329.636 9.82201C329.505 9.85746 331.221 9.93923 331.29 9.87281ZM148.685 6.9049C148.721 6.9022 149.633 6.90993 149.668 6.91324C150.482 6.99673 147.749 6.97318 148.685 6.9049ZM170.472 7.02915C171.163 7.02143 171.862 6.99477 172.094 7.07877C171.653 7.06292 170.39 7.08589 170.472 7.02915ZM200.533 7.30837C200.392 7.19888 202.47 7.29288 202.862 7.30728C202.717 7.35339 200.637 7.38718 200.533 7.30837ZM345.155 10.2753C346.419 10.348 346.148 10.1705 346.953 10.2891C347.087 10.3095 347.48 10.6708 346.11 10.4681C345.862 10.4321 346.843 10.4027 345.155 10.2753ZM275.185 8.50076C275.51 8.43583 276.514 8.47691 277.187 8.49606C277.036 8.54602 275.672 8.50525 275.185 8.50076ZM25.5775 9.09266C24.9931 9.01329 22.2247 9.18896 22.912 9.23046C23.0195 9.23525 25.2063 9.10243 25.5775 9.09266ZM115.97 7.00795C117.106 6.9203 114.751 6.91304 114.02 6.99664C114.351 6.98879 115.892 7.01366 115.97 7.00795ZM193.313 7.16997C193.367 7.16726 194.57 7.18772 194.623 7.19222C195.607 7.2855 192.206 7.2281 193.313 7.16997ZM163.309 6.85314C163.739 6.79011 166.588 6.85976 167.23 6.9294C166.61 7.02045 162.77 6.93135 163.309 6.85314ZM339.956 10.0788C340.86 10.1138 341.704 10.1714 342.541 10.2385C342.367 10.2843 340.035 10.1223 339.956 10.0788ZM197.724 7.21105C197.788 7.21221 197.851 7.21913 197.912 7.22048C197.848 7.21744 197.785 7.21408 197.724 7.21105ZM319.715 9.36376C318.965 9.32134 319.116 9.42623 319.163 9.4306C319.732 9.47884 320.556 9.41165 319.715 9.36376ZM32.5529 8.79296C32.3038 8.71116 30.9956 8.82954 30.2811 8.8341C30.4794 8.89862 31.982 8.82334 32.5529 8.79296ZM257.735 8.0938C256.777 7.97804 260.682 7.93385 261.493 8.01237C261.561 8.07433 257.862 8.10938 257.735 8.0938ZM112.458 6.89975C112.378 6.82914 110.745 6.92953 111.093 6.96009C111.311 6.97945 112.503 6.94353 112.458 6.89975ZM263.437 8.08965C263.806 8.07475 264.66 8.16087 264.358 8.19806C263.971 8.24573 263.341 8.09411 263.437 8.08965ZM296.192 8.69744C296.039 8.68307 293.863 8.70799 294.76 8.80044C295.383 8.86468 295.482 8.764 295.628 8.76692C295.8 8.77096 299.208 8.9733 296.192 8.69744ZM235.986 7.66659C236.796 7.6519 237.764 7.69896 238.62 7.71064C238.268 7.74899 236.33 7.73038 235.986 7.66659ZM118.74 6.83342C118.564 6.80477 113.177 6.82731 116.231 6.89324C116.416 6.89653 119.337 6.91651 118.74 6.83342ZM345.155 10.2753C344.998 10.2664 344.815 10.2536 344.599 10.2356C344.814 10.2492 344.997 10.2635 345.155 10.2753ZM330.79 9.67969C331.094 9.63786 329.583 9.57402 329.175 9.58869C329.03 9.64716 330.752 9.68542 330.79 9.67969ZM238.686 7.63941C239.176 7.61758 240.064 7.66345 240.668 7.66975C240.565 7.71624 238.898 7.69169 238.686 7.63941ZM204.4 7.10344C205.368 7.14369 206.563 7.14522 206.582 7.08654C206.602 7.09599 206.649 7.10635 206.727 7.11714C206.806 7.12782 207.845 7.11329 208.296 7.13907C210.996 7.29102 197.863 7.08257 205.476 7.00805C205.117 7.03982 204.759 7.07162 204.4 7.10344ZM159.457 6.69429C158.906 6.61983 157.37 6.70276 157.768 6.73281C158.045 6.75328 160.007 6.76912 159.457 6.69429ZM180.632 6.79674C180.467 6.78247 178.964 6.81988 178.925 6.85737C179.788 6.90436 181.38 6.86272 180.632 6.79674ZM155.23 6.59174C154.883 6.57955 154.442 6.69353 154.482 6.69873C154.833 6.74224 155.811 6.65843 155.23 6.59174ZM342.557 9.836C342.042 9.77826 340.409 9.78998 340.052 9.85175C339.988 9.83424 339.815 9.80758 339.488 9.77082C339.489 9.77087 339.49 9.77091 339.491 9.77095C339.042 9.7038 325.834 9.20881 334.705 9.66732C334.982 9.68222 334.602 9.59937 335.726 9.6532C335.802 9.65693 335.839 9.71428 336.071 9.72577C336.595 9.75027 339.419 9.89791 339.983 9.87816C339.988 9.88873 340.023 9.90011 340.099 9.9124C340.8 10.0219 342.952 9.8794 342.557 9.836ZM183.618 6.81309C183.316 6.78958 182.354 6.80061 182.255 6.84912C182.731 6.87753 184.32 6.86789 183.618 6.81309ZM118.574 6.63186C117.968 6.59508 116.393 6.68218 116.869 6.71919C117.172 6.74167 119.279 6.67382 118.574 6.63186ZM174.015 6.75902C177.55 6.84471 174.858 6.76078 175.401 6.69254C174.938 6.71464 174.476 6.7368 174.015 6.75902ZM358.767 11.1103C358.209 11.0457 358.876 10.9592 359.488 11.0907C359.679 11.1322 359.076 11.1461 358.767 11.1103ZM383.895 13.9856C383.439 13.7877 385.744 14.215 384.828 14.163C384.785 14.1592 383.927 13.9953 383.895 13.9856ZM366.375 11.7259C365.988 11.7736 365.74 11.758 364.675 11.6321C366.258 11.764 364.8 11.5421 366.375 11.7259ZM206.572 7.07713C206.578 7.0807 206.583 7.08334 206.582 7.08654C206.575 7.08328 206.572 7.08024 206.572 7.07713ZM151.908 6.60238C151.475 6.52785 150.219 6.5296 150.592 6.60426C150.628 6.61114 151.732 6.65578 151.908 6.60238ZM340.052 9.85175C340.109 9.86727 340.079 9.87449 339.983 9.87816C339.979 9.86822 340.004 9.86005 340.052 9.85175ZM158.566 6.56896C158.521 6.62321 160.41 6.65355 160.487 6.64763C161.575 6.55858 159.343 6.56915 158.566 6.56896ZM106.088 6.66272C105.991 6.66945 106.619 6.80352 107.004 6.74438C107.302 6.69848 106.451 6.63714 106.088 6.66272ZM369.999 12.0738C370.591 12.1388 371.419 12.2327 371.567 12.3171C371.173 12.2611 369.98 12.1207 369.999 12.0738ZM383.003 13.7582C382.295 13.7309 380.71 13.4976 379.699 13.3433C379.695 13.2358 382.346 13.6815 383.003 13.7582ZM344.163 9.95172C344.126 9.94515 342.617 9.84187 342.827 9.92145C343.116 10.0361 344.581 10.01 344.163 9.95172ZM109.01 6.7076C109.677 6.65343 108.132 6.52175 107.42 6.64241C107.053 6.70408 108.902 6.7165 109.01 6.7076ZM148.029 6.49613C147.146 6.53422 149.334 6.61059 149.643 6.53914C149.234 6.53222 148.342 6.48262 148.029 6.49613ZM178.149 6.5877C175.356 6.35601 176.875 6.74949 177.371 6.71999C177.441 6.71577 178.218 6.59317 178.149 6.5877ZM18.6442 8.92733C18.2505 8.97067 19.7265 9.02231 19.9135 8.94624C20.0246 8.89886 18.9082 8.89926 18.6442 8.92733ZM220.15 7.19679C220.032 7.19582 219.916 7.19488 219.8 7.19387C219.887 7.19167 220.001 7.19214 220.15 7.19679ZM139.997 6.20676C141.976 6.50208 141.755 6.27506 141.928 6.27631C142.294 6.27971 143.147 6.36013 143.842 6.34786C143.046 6.38015 142.254 6.41269 141.464 6.44549C142.073 6.46601 147.561 6.58256 147.66 6.53585C147.821 6.46803 146.119 6.48601 146.062 6.48C145.989 6.47133 145.719 6.28153 145.559 6.27407C145.281 6.26146 140.751 6.25311 139.997 6.20676ZM172.316 6.57498C172.767 6.60078 172.89 6.67673 173.099 6.66034C173.17 6.65473 173.182 6.58326 173.423 6.56656C173.054 6.56933 172.688 6.57216 172.316 6.57498ZM136.49 6.4734C135.937 6.38637 138.412 6.41767 138.495 6.42766C138.919 6.48671 136.937 6.54423 136.49 6.4734ZM157.626 6.5012C157.538 6.49561 155.624 6.46022 155.637 6.50888C156.152 6.54775 158.697 6.56984 157.626 6.5012ZM173.722 6.56392C174.393 6.57728 175.663 6.65925 175.518 6.55038C175.517 6.55038 175.516 6.55037 175.515 6.55036C174.917 6.55478 174.319 6.5593 173.722 6.56392ZM111.292 6.45875C110.045 6.29846 110.635 6.5098 111.741 6.55535C112.076 6.47537 111.496 6.48483 111.292 6.45875ZM107.306 6.36915C106.952 6.34134 103.404 6.41445 103.94 6.49949C104.147 6.52929 106.178 6.42531 106.275 6.43072C106.419 6.43852 105.765 6.54584 106.859 6.51442C106.794 6.48104 107.425 6.37822 107.306 6.36915ZM110.261 6.35828C109.029 6.23932 108.758 6.48279 109.68 6.47458C110.041 6.47157 110.437 6.37547 110.261 6.35828ZM115.315 6.33607C114.867 6.31661 113.695 6.29255 112.876 6.37955C113.97 6.37718 115.049 6.37551 116.15 6.37426C116.277 6.32798 115.704 6.35315 115.312 6.33609C115.313 6.33609 115.314 6.33608 115.315 6.33607ZM390.439 14.2798C389.478 14.062 391.723 14.3827 391.817 14.4138C392.09 14.5121 390.87 14.3774 390.439 14.2798ZM10.8841 7.01903C10.6107 7.00157 10.4309 6.91843 9.82919 6.9868C10.4394 7.03119 11.0494 7.07551 11.6505 7.12011C12.1111 6.95209 11.1933 7.03802 10.8841 7.01903ZM8.55608 6.54835C8.63838 6.54175 8.17495 6.32525 9.27497 6.4417C10.0244 6.52022 5.96992 6.76629 5.23896 6.68818C6.04611 6.61203 7.82235 6.60435 8.55608 6.54835ZM1.41834 5.78907C1.37022 5.77218 2.90881 5.69196 3.08908 5.69877C4.02527 5.73546 1.67592 5.87986 1.41834 5.78907ZM6.33334 5.66285C5.60569 5.64318 7.21602 5.55742 7.68631 5.56677C7.73155 5.60856 6.45133 5.66532 6.33334 5.66285ZM381.09 9.44574C380.334 9.17792 379.59 9.41761 380.797 9.51884C380.855 9.52377 381.122 9.45815 381.09 9.44574ZM2.91642 5.50247C3.64003 5.5227 2.04032 5.60715 1.56271 5.59747C1.51644 5.55577 2.80433 5.49976 2.91642 5.50247ZM380.595 8.99452C379.576 8.73609 379.888 9.16625 380.015 9.19938C380.539 9.33254 382.383 9.4477 382.76 9.467C380.024 9.12488 381.073 9.11813 380.595 8.99452ZM375.788 8.58438C375.303 8.54443 375.681 8.6213 376.236 8.70282C376.786 8.78354 377.511 8.87086 377.75 8.84911C377.416 8.80848 376.725 8.7053 376.244 8.64019C376.039 8.61239 375.871 8.59121 375.788 8.58438ZM369.965 7.78071C369.448 7.70981 367.914 7.51495 367.649 7.54867C368.214 7.59535 369.741 7.8179 369.965 7.78071ZM368.812 7.47558C368.013 7.30902 367.793 7.5254 368.734 7.55314C368.77 7.55424 368.841 7.48323 368.812 7.47558ZM364.27 6.93085C363.75 6.78581 363.119 6.95778 363.981 7.04588C364.236 7.07169 364.325 6.94704 364.27 6.93085ZM379.355 8.4065C378.602 8.26228 377.601 8.29435 379.22 8.53185C378.647 8.47888 378.074 8.42758 377.501 8.37805C379.613 8.75101 379.487 8.50816 380.095 8.60124C380.945 8.73407 380.85 8.91228 380.672 8.94669C381.386 8.92793 384.345 9.36265 386.05 9.60551C384.561 9.32612 382.137 8.87714 380.655 8.63801C380.231 8.56897 379.813 8.56305 379.451 8.50741C378.872 8.41836 379.398 8.41506 379.358 8.40691C379.357 8.40677 379.356 8.40664 379.355 8.4065ZM358.286 6.3875C356.734 6.14944 357.7 6.46231 358.587 6.49639C358.625 6.49643 358.325 6.3934 358.286 6.3875ZM0.821991 4.87048C2.91095 4.89533 1.40034 5.0767 5.75534 4.72988C3.92256 4.93199 5.66107 4.83243 5.30201 4.90064C5.01314 4.95481 3.93699 4.95581 4.56802 5.02252C3.74465 4.955 0.175198 5.10435 0.0165797 5.09401C0.0180748 5.09396 0.0195699 5.09391 0.0210649 5.09386C-0.0748739 5.08786 0.155753 4.86253 0.821991 4.87048ZM370.023 7.17797C369.534 6.84231 369.28 7.26279 368.281 6.92364C366.882 7.11368 372.049 7.32601 372.637 7.69063C367.073 7.0243 376.283 8.39551 372.445 7.52294C375.63 8.05309 373.501 7.59367 374.002 7.59761C374.537 7.60172 376.342 7.88999 376.262 7.77542C376.261 7.77529 376.26 7.77516 376.259 7.77504C375.151 7.64209 374.041 7.51503 372.932 7.3931C373.99 7.74406 371.734 7.41178 370.986 7.14546C370.664 7.15573 370.345 7.16687 370.023 7.17797ZM376.268 8.12461C376.16 8.10342 373.747 7.83988 373.898 7.9054C374.107 7.94859 375.651 8.12827 376.301 8.18498C376.634 8.21363 376.734 8.20799 376.308 8.13173C376.295 8.12943 376.282 8.12705 376.268 8.12461ZM386.836 9.5868C385.98 9.45371 384.658 9.20719 384.177 9.22104C385.036 9.35098 386.356 9.59875 386.836 9.5868ZM342.273 5.15081C341.157 5.16886 344.572 5.3491 343.587 5.22012C343.524 5.21287 342.338 5.15021 342.273 5.15081ZM367.509 6.95451C366.395 6.75432 366.9 7.08011 367.737 7.09484C367.786 7.09566 367.56 6.96363 367.509 6.95451ZM2.51104 4.77918C2.58368 4.70986 5.61114 4.65173 6.14537 4.63215C5.84263 4.70534 2.42941 4.85902 2.51104 4.77918ZM388.381 9.57291C386.716 9.06962 384.354 8.99006 384.099 8.94667C383.847 8.90238 384.26 8.85818 384.203 8.8467C384.073 8.81909 381.37 8.42916 381.237 8.42005C381.142 8.41229 381.61 8.62874 381.046 8.59498C382.151 8.65968 387.068 9.46345 387.322 9.48919C387.522 9.50696 386.058 9.1227 388.378 9.57245C388.379 9.5726 388.38 9.57275 388.381 9.57291ZM383.467 8.81928C384.133 8.9811 382.241 8.70683 381.785 8.61895C380.774 8.4202 383.383 8.79716 383.467 8.81928ZM378.916 8.11098C378.702 8.06616 376.743 7.79593 376.569 7.84487C377.483 8.04987 379.404 8.20956 378.916 8.11098ZM357.101 5.81392C356.809 5.79484 356.229 5.73206 355.766 5.69224C355.423 5.66264 355.145 5.64563 355.108 5.66864C355.265 5.6784 355.505 5.70064 355.763 5.7253C356.353 5.78144 357.042 5.85101 357.101 5.81392ZM12.8142 3.88869C11.9642 3.86873 13.9265 3.7776 14.4965 3.78123C14.5339 3.82015 12.8977 3.89005 12.8142 3.88869ZM367.379 6.36136C367.078 6.30242 360.917 5.75997 360.051 5.72222C360.892 5.83211 366.992 6.41768 367.271 6.43332C367.353 6.43497 367.417 6.36817 367.379 6.36136ZM380.691 7.937C381.267 7.92871 381.619 8.08743 381.69 8.09895C382.384 8.21212 383.826 8.40696 383.498 8.4446C382.28 8.22463 379.545 7.95318 380.691 7.937ZM356.696 5.37738C354.603 5.23931 358.611 5.66197 358.091 5.52717C358.058 5.51851 356.913 5.3914 356.696 5.37738ZM368.069 6.40665C368.538 6.37193 374.689 7.12457 375.678 7.26253C374.777 7.28404 374.073 7.0971 372.885 6.96533C372.564 6.93005 372.642 6.9947 372.608 6.99079C372.053 6.92939 372.476 6.91403 372.133 6.87379C371.915 6.84198 367.409 6.43541 368.069 6.40665ZM381.021 7.92167C381.374 7.91532 385.202 8.4636 385.351 8.50347C386.487 8.77533 381.321 7.97363 381.021 7.92167ZM367.516 6.23114C368.193 6.14344 371.244 6.57632 369.141 6.42726C368.939 6.41258 368.102 6.2571 367.516 6.23114ZM356.932 5.24976C356.882 5.24345 356.354 5.1917 355.81 5.14547C355.229 5.09584 354.63 5.05297 354.608 5.07674C354.726 5.09321 355.259 5.14197 355.807 5.18921C356.707 5.26667 357.655 5.34063 356.932 5.24976ZM358.075 5.17886C358.023 5.17573 358.525 5.31229 357.505 5.21491C357.419 5.20687 357.27 5.0869 355.981 5.02135C355.931 5.01886 355.877 5.01818 355.82 5.01875C355.581 5.02138 355.315 5.04721 355.339 5.05262C355.472 5.08008 355.633 5.10484 355.812 5.127C357.413 5.32395 360.455 5.33255 358.075 5.17886ZM381.104 7.84662C380.903 7.77285 381.421 7.71215 381.861 7.84395C382.049 7.9007 381.678 7.92706 381.104 7.84662ZM349.996 4.69107C351.278 4.69024 347.281 4.42659 347.073 4.44128C347.206 4.49649 349.878 4.68878 349.996 4.69107ZM14.7696 3.19579C14.7686 3.19582 14.7676 3.19586 14.7666 3.19589C15.8441 3.17528 15.1778 3.26641 15.2313 3.26659C17.5033 3.28302 16.8829 3.15345 17.2421 3.12253C18.0153 3.05573 17.8764 3.24556 19.1654 3.12216C17.0422 3.31234 18.9818 3.19454 19.0424 3.25807C19.2858 3.51753 16.2155 3.23501 15.1629 3.32915C15.0242 3.34195 16.0956 3.38887 15.7244 3.42663C14.4992 3.5499 10.6975 3.27252 14.7696 3.19579ZM382.209 7.88273C382.716 7.8729 386.428 8.51382 385.431 8.42823C385.274 8.41118 381.47 7.88797 382.209 7.88273ZM206.985 1.16261C207.887 1.10559 205.799 0.999694 205.411 1.04809C205.218 1.07216 206.589 1.18759 206.985 1.16261ZM192.345 0.704141C191.274 0.706819 190.143 0.979533 191.475 0.949061C191.617 0.945683 192.468 0.744829 192.345 0.704141ZM262.642 1.87839C261.533 1.75644 261.595 1.94632 262.411 1.95864C262.699 1.96302 262.677 1.88224 262.642 1.87839ZM219.98 1.21218C219.869 1.20401 218.577 1.19822 218.623 1.24225C219.101 1.2748 220.703 1.26743 219.98 1.21218ZM262.995 1.85802C262.337 1.87992 263.464 2.03715 264.288 1.91907C263.874 1.92231 263.058 1.8557 262.995 1.85802ZM365.245 5.58442C364.682 5.60669 363.111 5.43333 362.207 5.36452C362.119 5.25447 364.597 5.5375 365.245 5.58442ZM196.89 0.867176C195.875 0.926728 198.046 1.00865 197.848 0.91298C197.821 0.907579 196.93 0.864588 196.89 0.867176ZM298.707 2.57687C297.959 2.61979 300.324 2.75408 299.676 2.63406C299.645 2.62906 298.749 2.57449 298.707 2.57687ZM308.914 2.85196C308.363 2.81806 305.99 2.76697 306.914 2.84772C307.068 2.86033 308.858 2.90536 308.914 2.85196ZM17.303 3.04801C17.0038 2.95567 18.7398 2.91731 18.9995 2.9259C19.0995 2.92978 17.7052 3.16771 17.303 3.04801ZM255.389 1.73149C254.812 1.73418 253.294 1.68309 253.037 1.73274C253.742 1.73377 255.58 1.84263 255.389 1.73149ZM201.512 0.919147C200.63 0.796769 199.122 0.790652 199.493 0.941302C201.159 0.950585 199.289 0.80722 201.512 0.919147ZM266.73 1.80698C266.268 1.78975 265.91 1.92367 265.962 1.93127C266.463 2.00369 267.187 1.87031 266.73 1.80698ZM231.919 1.32986C231.893 1.26935 230.409 1.27417 230.606 1.31585C230.672 1.32979 231.94 1.37879 231.919 1.32986ZM345.697 4.04092C345.02 3.95034 347.104 4.00607 347.73 4.10765C348.028 4.21596 345.788 4.05042 345.697 4.04092ZM279.594 2.09316C279.669 2.00542 277.327 2.00879 278.248 2.10122C278.48 2.12435 279.57 2.12248 279.594 2.09316ZM301.826 2.46615C300.26 2.5357 306.818 2.76516 305.097 2.59222C304.994 2.58011 301.975 2.46041 301.826 2.46615ZM312.527 2.79183C312.252 2.77314 312.405 2.47716 313.517 2.62127C313.663 2.64001 312.977 2.70163 313.096 2.7228C313.177 2.73501 315.559 2.8389 315.693 2.83564C315.815 2.83089 315.674 2.73113 315.798 2.7236C315.948 2.71546 317.403 2.83844 318.197 2.86101C319.689 2.90315 319.829 2.82741 319.952 2.83047C320.289 2.83927 320.894 2.91291 321.611 2.93316C325.197 3.03255 330.703 3.13689 333.535 3.40834C331.004 3.25124 328.568 3.24514 326.065 3.19126C326.794 3.04581 322.368 3.20968 324.958 3.09396C323.758 3.0944 313.392 2.84641 312.53 2.79191C312.529 2.79188 312.528 2.79185 312.527 2.79183ZM188.12 0.577418C188.78 0.481445 185.402 0.471774 185.116 0.587679C185.56 0.608137 188.038 0.588103 188.12 0.577418ZM203.695 0.497586C204.009 0.483701 204.308 0.287153 205.951 0.408606C205.952 0.408624 205.954 0.408642 205.955 0.40866C206.436 0.44416 205.887 0.486178 205.975 0.504617C206.007 0.512077 207.506 0.62999 206.26 0.630676C204.36 0.632038 206.082 0.4797 205.07 0.465286C204.947 0.463567 203.03 0.548886 203.141 0.574015C203.153 0.576914 203.729 0.560875 203.824 0.571894C204.183 0.613315 204.008 0.673665 204.058 0.677243C204.223 0.686695 207.255 0.617246 207.695 0.715786C207.837 0.747178 202.864 0.755852 202.671 0.738383C202.548 0.727122 202.602 0.554404 202.475 0.535862C202.41 0.526542 200.409 0.568194 200.149 0.549349C200.074 0.543876 200.016 0.538247 199.974 0.533668C200.276 0.590722 198.465 0.566254 198.521 0.506422C198.553 0.482971 199.799 0.510883 199.844 0.515575C199.863 0.517559 199.88 0.520179 199.896 0.522034C199.639 0.45348 203.86 0.505779 202.95 0.397902C204.174 0.359153 202.775 0.538499 203.695 0.497586ZM209.578 0.463024C209.451 0.479653 209.325 0.496285 209.198 0.51292C211.335 0.49525 213.817 0.615269 216.277 0.647766C216.904 0.656189 216.184 0.534961 217.006 0.576549C217.664 0.609885 218.391 0.723271 218.033 0.741429C217.947 0.74598 216.604 0.660342 215.936 0.658319C213.961 0.652362 214.458 0.754718 214.343 0.755739C214.215 0.756752 212.971 0.673114 212.291 0.66729C210.577 0.65285 209.801 0.701522 207.466 0.595737C208.814 0.549525 208.078 0.403379 209.578 0.463024ZM289.41 2.0266C289.489 1.96806 290.883 2.05138 291.405 2.05386C291.323 2.11239 289.905 2.02828 289.41 2.0266ZM80.4731 0.646969C80.0513 0.753771 83.2679 0.715684 82.4186 0.650001C82.2297 0.635295 80.8901 0.639276 80.4731 0.646969ZM94.978 0.457487C95.41 0.423819 93.6674 0.378339 93.674 0.454806C93.6758 0.479228 94.921 0.4618 94.978 0.457487ZM237.262 0.955096C237.342 0.953237 238.531 0.994086 238.569 0.999738C239.351 1.11695 235.451 0.994684 237.262 0.955096ZM112.619 0.13322C111.113 0.210448 115.638 0.201232 114.256 0.130023C114.186 0.126467 112.7 0.129296 112.619 0.13322ZM118.912 0.068238C118.553 0.0738959 116.96 0.0526441 116.932 0.0830675C116.908 0.131735 118.731 0.15256 118.912 0.068238ZM267.048 1.43985C266.874 1.32524 268.982 1.44941 269.724 1.44968C269.901 1.56438 267.765 1.43925 267.048 1.43985ZM253.715 1.11555C262.61 1.18568 260.662 1.38818 253.183 1.16046C253.175 1.08893 253.147 1.11115 253.715 1.11555ZM265.123 1.33489C264.8 1.40013 263.777 1.35999 263.095 1.34169C263.212 1.29427 264.632 1.3385 265.123 1.33489ZM76.6224 0.573511C77.1954 0.470871 79.6497 0.531379 79.2156 0.577534C79.1153 0.587258 76.423 0.627016 76.6224 0.573511ZM238.008 0.871661C237.803 0.760103 240.484 0.84708 240.686 0.874474C241.511 0.984393 238.229 0.851138 238.008 0.871661ZM279.691 1.59158C280.171 1.51649 281.48 1.58669 282.358 1.60586C281.942 1.66978 280.429 1.608 279.691 1.59158ZM273.459 1.40127C273.515 1.39909 274.724 1.43046 274.777 1.43542C275.766 1.53763 272.344 1.44933 273.459 1.40127ZM13.268 2.43535C13.2997 2.43149 14.2282 2.40346 14.2507 2.40584C15.0611 2.45809 12.3407 2.53939 13.268 2.43535Z" fill="url(#paint0_linear_58_618)"/>
<defs>
<linearGradient id="paint0_linear_58_618" x1="0.21515" y1="1.5687" x2="392.184" y2="12.7143" gradientUnits="userSpaceOnUse">
<stop stop-color="#FC344F"/>
<stop offset="0.125" stop-color="#FC344F"/>
<stop offset="0.307692" stop-color="#FF443F"/>
<stop offset="0.365385" stop-color="#FF443F"/>
<stop offset="0.485577" stop-color="#FD384B"/>
<stop offset="0.644231" stop-color="#FE3D46"/>
<stop offset="0.730769" stop-color="#FD374C"/>
<stop offset="1" stop-color="#FC344F"/>
</linearGradient>
</defs>
</svg>
